<?xml version="1.0" standalone="no"?>
<!DOCTYPE svg PUBLIC "-//W3C//DTD SVG 20010904//EN"
 "http://www.w3.org/TR/2001/REC-SVG-20010904/DTD/svg10.dtd">
<svg version="1.0" xmlns="http://www.w3.org/2000/svg"
 width="260.000000pt" height="260.000000pt" viewBox="0 0 260.000000 260.000000"
 preserveAspectRatio="xMidYMid meet">
<metadata>
Created by potrace 1.11, written by Peter Selinger 2001-2013
</metadata>
<g transform="translate(0.000000,260.000000) scale(0.100000,-0.100000)"
fill="#000000" stroke="none">
<path d="M2053 2462 c-17 -2 -23 -10 -23 -30 0 -15 -9 -59 -21 -97 -47 -158
-97 -364 -103 -421 -3 -34 -8 -68 -10 -75 -8 -24 -18 -82 -23 -144 -9 -105
-16 -130 -42 -133 -12 -2 -52 -32 -89 -66 -116 -109 -293 -246 -319 -246 -33
0 -54 53 -57 144 -4 98 2 106 72 106 96 1 149 34 237 149 43 57 49 70 48 110
-2 55 -26 88 -85 119 -72 37 -117 39 -169 8 -24 -15 -57 -44 -74 -66 -25 -33
-66 -67 -51 -42 3 5 -2 19 -11 32 -16 23 -17 23 -182 16 -207 -9 -231 -19
-196 -86 9 -17 14 -33 13 -37 -1 -5 -5 -30 -9 -56 -4 -26 -18 -67 -30 -91 -26
-52 -20 -81 13 -71 30 9 38 17 43 44 2 13 13 39 25 58 11 19 20 39 20 46 0 30
37 98 55 102 42 10 83 15 164 22 l85 6 -37 -66 c-20 -36 -37 -73 -37 -82 0 -9
-7 -30 -16 -47 -23 -45 -24 -150 0 -286 8 -50 70 -120 118 -133 75 -20 113 -5
202 79 45 42 88 87 98 101 9 13 27 35 41 50 14 14 48 50 75 79 59 63 74 66 67
15 -7 -45 -17 -272 -17 -363 0 -109 29 -148 117 -158 40 -4 45 -2 56 21 7 17
9 39 3 64 -22 102 -16 113 64 111 123 -2 207 59 273 198 21 45 39 89 39 98 0
9 7 33 16 54 14 33 18 65 25 222 8 168 -181 196 -330 49 -52 -51 -87 -73 -95
-61 -6 10 0 47 16 107 5 22 11 63 13 91 1 27 8 60 14 72 7 12 14 40 16 62 2
22 11 60 19 84 32 92 67 250 64 284 -2 29 -8 38 -33 47 -16 6 -40 9 -52 7z
m-463 -681 c38 -72 -31 -156 -150 -184 -49 -12 -56 5 -26 66 50 102 148 168
176 118z m709 -35 c26 -55 12 -288 -21 -366 -34 -76 -155 -151 -232 -142 -29
3 -37 9 -45 36 -16 47 -12 186 5 210 8 11 14 29 14 39 0 11 24 47 53 80 28 33
61 75 72 93 27 45 84 86 115 82 16 -2 30 -13 39 -32z"/>
<path d="M0 1100 l0 -970 1300 0 1300 0 0 970 0 971 -244 -1 c-239 -1 -244 -2
-239 -21 5 -16 8 -18 14 -7 5 7 9 8 9 2 0 -7 62 -10 195 -10 108 1 203 -2 212
-5 18 -6 26 -36 12 -45 -5 -3 -6 -11 -2 -17 12 -20 12 -37 0 -37 -8 0 -7 -3 1
-9 17 -11 17 -21 0 -32 -7 -5 -8 -9 -2 -9 6 0 11 -7 11 -15 0 -8 -5 -15 -11
-15 -6 0 -5 -4 2 -9 17 -11 17 -21 0 -32 -7 -5 -8 -9 -2 -9 6 0 11 -7 11 -15
0 -8 -5 -15 -11 -15 -6 0 -5 -4 2 -9 8 -4 14 -12 14 -16 0 -4 -6 -12 -14 -16
-7 -5 -8 -9 -2 -9 6 0 11 -7 11 -15 0 -8 -5 -15 -11 -15 -6 0 -5 -4 2 -9 8 -4
14 -12 14 -16 0 -4 -6 -12 -14 -16 -7 -5 -8 -9 -2 -9 14 0 14 -30 0 -30 -6 0
-5 -4 2 -9 8 -4 14 -12 14 -16 0 -4 -6 -12 -14 -16 -7 -5 -8 -9 -2 -9 6 0 11
-7 11 -15 0 -8 -5 -15 -11 -15 -6 0 -5 -4 2 -9 8 -4 14 -12 14 -16 0 -4 -6
-12 -14 -16 -7 -5 -8 -9 -2 -9 6 0 11 -7 11 -15 0 -8 -5 -15 -11 -15 -6 0 -5
-4 2 -9 8 -4 14 -12 14 -16 0 -4 -6 -12 -14 -16 -7 -5 -8 -9 -2 -9 6 0 11 -7
11 -15 0 -8 -5 -15 -11 -15 -6 0 -5 -4 2 -9 8 -4 14 -12 14 -16 0 -4 -6 -12
-14 -16 -7 -5 -8 -9 -2 -9 6 0 11 -7 11 -15 0 -8 -5 -15 -11 -15 -6 0 -5 -4 2
-9 17 -11 17 -21 0 -32 -7 -5 -8 -9 -2 -9 14 0 14 -30 0 -30 -6 0 -5 -4 2 -9
8 -4 14 -12 14 -16 0 -4 -6 -12 -14 -16 -7 -5 -8 -9 -2 -9 6 0 11 -7 11 -15 0
-8 -5 -15 -11 -15 -6 0 -5 -4 2 -9 8 -4 14 -12 14 -16 0 -4 -6 -12 -14 -16 -7
-5 -8 -9 -2 -9 6 0 11 -7 11 -15 0 -8 -5 -15 -11 -15 -6 0 -5 -4 2 -9 8 -4 14
-12 14 -16 0 -4 -6 -12 -14 -16 -7 -5 -8 -9 -2 -9 6 0 11 -7 11 -15 0 -8 -5
-15 -11 -15 -6 0 -5 -4 2 -9 8 -4 14 -12 14 -16 0 -4 -6 -12 -14 -16 -7 -5 -8
-9 -2 -9 6 0 11 -7 11 -15 0 -8 -5 -15 -11 -15 -6 0 -5 -4 2 -9 8 -4 14 -12
14 -16 0 -4 -6 -12 -14 -16 -7 -5 -8 -9 -2 -9 6 0 11 -7 11 -15 0 -8 -5 -15
-11 -15 -6 0 -5 -4 2 -9 8 -4 14 -12 14 -16 0 -4 -6 -12 -14 -16 -7 -5 -8 -9
-2 -9 6 0 11 -7 11 -15 0 -8 -5 -15 -11 -15 -6 0 -5 -4 2 -9 17 -11 17 -21 0
-32 -7 -5 -8 -9 -2 -9 6 0 11 -7 11 -15 0 -8 -5 -15 -11 -15 -6 0 -5 -4 2 -9
8 -4 14 -12 14 -16 0 -4 -6 -12 -14 -16 -7 -5 -8 -9 -2 -9 6 0 11 -7 11 -15 0
-8 -5 -15 -11 -15 -6 0 -5 -4 2 -9 8 -4 14 -12 14 -16 0 -4 -6 -12 -14 -16 -7
-5 -8 -9 -2 -9 6 0 11 -7 11 -15 0 -8 -5 -15 -11 -15 -6 0 -5 -4 2 -9 8 -4 14
-12 14 -16 0 -4 -6 -12 -14 -16 -7 -5 -8 -9 -2 -9 6 0 11 -7 11 -15 0 -8 -5
-15 -11 -15 -6 0 -5 -4 2 -9 17 -11 17 -21 0 -32 -7 -5 -8 -9 -2 -9 6 0 11 -7
11 -15 0 -8 -5 -15 -11 -15 -7 0 -7 -3 -1 -8 15 -11 17 -32 3 -32 -10 0 -10
-2 0 -9 8 -4 14 -12 14 -16 0 -4 -6 -12 -14 -16 -7 -5 -8 -9 -2 -9 6 0 10 -15
9 -32 -1 -19 -7 -32 -14 -30 -6 1 -11 -1 -11 -5 0 -9 -157 -9 -165 -1 -4 3
-22 2 -41 -2 -19 -4 -36 -4 -39 0 -2 4 -22 4 -44 0 -25 -4 -44 -3 -50 3 -6 6
-11 7 -11 1 0 -10 -91 -10 -109 0 -6 4 -11 4 -11 -1 0 -9 -167 -10 -175 -1 -3
3 -22 2 -41 -2 -19 -4 -36 -4 -39 0 -2 4 -22 4 -44 0 -25 -4 -44 -3 -50 3 -6
6 -11 7 -11 1 0 -10 -91 -10 -109 0 -6 4 -11 4 -11 -1 0 -9 -167 -10 -175 -1
-3 3 -22 2 -41 -2 -19 -4 -36 -4 -39 0 -2 4 -22 4 -44 0 -25 -4 -44 -3 -50 3
-6 6 -11 7 -11 1 0 -10 -91 -10 -109 0 -6 4 -11 4 -11 -1 0 -9 -167 -10 -175
-1 -3 3 -22 2 -41 -2 -19 -4 -36 -4 -39 0 -2 4 -22 4 -44 0 -25 -4 -44 -3 -50
3 -6 6 -11 7 -11 1 0 -10 -91 -10 -109 0 -6 4 -11 4 -11 -1 0 -9 -167 -10
-175 -1 -3 3 -22 2 -41 -2 -19 -5 -37 -4 -40 1 -3 5 -10 7 -15 3 -19 -12 -309
-8 -321 4 -9 9 -9 12 0 12 10 0 10 5 1 21 -9 17 -8 20 2 14 8 -6 10 -4 4 5
-12 20 -12 74 -1 83 8 5 8 9 1 15 -14 9 -13 75 0 84 6 5 5 8 -2 8 -9 0 -10 7
-3 24 5 13 6 27 3 30 -10 10 -9 71 1 78 8 6 8 10 1 15 -14 10 -13 76 0 85 6 5
5 8 -2 8 -9 0 -10 7 -3 24 5 13 6 27 3 30 -10 10 -9 71 1 79 8 5 8 9 1 15 -14
9 -13 75 0 84 6 5 5 8 -2 8 -9 0 -10 7 -3 24 5 13 6 27 3 30 -10 10 -9 71 1
79 8 5 8 9 1 15 -14 9 -13 75 0 84 6 5 5 8 -2 8 -9 0 -10 7 -3 24 5 13 6 27 3
30 -10 10 -9 71 1 79 8 5 8 9 1 15 -14 9 -13 75 0 84 6 5 5 8 -2 8 -9 0 -10 7
-3 24 5 13 6 27 3 30 -10 10 -9 71 1 79 8 5 8 9 1 15 -14 9 -13 75 0 84 6 5 5
8 -2 8 -9 0 -10 7 -3 24 5 13 6 27 3 30 -10 10 -9 71 1 79 8 5 8 9 1 15 -14 9
-13 75 0 84 6 5 5 8 -2 8 -9 0 -10 7 -4 23 5 13 6 29 2 35 -3 6 -6 33 -6 59 1
42 4 48 23 48 11 0 23 3 26 5 2 3 384 4 848 4 607 -1 847 2 857 10 11 8 13 8
7 -1 -4 -7 -2 -13 4 -13 6 0 13 6 16 14 3 8 13 12 22 9 15 -4 15 -3 2 6 -10 7
-291 11 -927 11 l-913 0 0 -970z"/>
<path d="M303 1992 c-16 -11 -41 -65 -52 -113 -6 -24 -22 -95 -37 -156 -26
-112 -26 -114 -11 -199 9 -47 21 -91 26 -98 16 -19 85 -39 109 -32 27 9 69 54
125 136 24 36 66 87 91 115 38 39 49 46 56 35 5 -8 6 -26 2 -40 -4 -14 -6 -45
-5 -69 2 -25 -4 -70 -13 -100 -21 -75 -25 -101 -30 -201 -8 -125 9 -193 61
-247 40 -41 77 -55 90 -33 3 5 12 7 20 3 18 -6 40 10 59 46 7 14 23 44 35 66
13 23 21 58 21 85 0 37 5 52 25 70 14 13 23 25 21 27 -2 3 0 17 4 33 5 18 4
30 -1 32 -7 2 -7 12 0 29 15 40 20 88 11 94 -13 8 -38 -35 -46 -76 -6 -31 -34
-85 -34 -65 0 5 -6 3 -14 -4 -8 -6 -13 -17 -10 -24 3 -7 -2 -19 -11 -26 -8 -7
-15 -18 -15 -24 0 -24 -52 -116 -66 -116 -21 0 -28 47 -14 107 6 31 14 83 16
116 2 33 11 79 18 102 28 81 42 261 23 301 -12 28 -48 44 -97 44 -45 0 -104
-44 -236 -173 -47 -45 -87 -77 -93 -73 -14 9 -14 65 -1 137 5 30 12 73 15 97
3 24 14 62 24 85 19 43 15 73 -10 93 -21 16 -45 23 -56 16z"/>
<path d="M411 878 c-10 -24 -35 -81 -56 -128 -20 -47 -46 -105 -57 -130 -11
-25 -35 -79 -53 -120 -31 -71 -44 -103 -102 -230 -23 -51 -24 -55 -7 -67 26
-19 42 -16 50 10 4 12 24 59 45 105 22 46 39 85 39 87 0 3 11 28 25 57 13 29
62 140 109 246 78 178 83 193 66 202 -31 17 -40 12 -59 -32z"/>
<path d="M1030 829 c0 -87 -1 -90 -21 -84 -68 22 -171 -2 -213 -49 -46 -51
-65 -173 -44 -273 13 -61 63 -110 123 -119 55 -8 114 7 140 36 24 27 32 25 40
-9 5 -24 10 -27 31 -23 17 3 23 9 20 19 -3 8 -6 145 -6 304 l0 289 -35 0 -35
0 0 -91z m-19 -149 c17 -10 19 -22 19 -121 0 -161 -30 -209 -119 -195 -63 10
-94 63 -94 160 0 73 19 124 57 147 34 21 105 25 137 9z"/>
<path d="M1605 754 c-5 -1 -22 -5 -37 -8 -38 -8 -86 -52 -104 -95 -20 -46 -26
-152 -12 -214 25 -106 136 -161 258 -127 59 16 74 31 60 61 l-12 26 -36 -19
c-62 -31 -150 -16 -179 32 -19 30 -33 99 -21 106 5 3 69 7 141 8 l132 1 0 66
c-1 105 -42 153 -140 162 -22 2 -44 3 -50 1z m87 -76 c23 -11 46 -87 30 -97
-6 -3 -53 -6 -104 -6 -89 0 -93 1 -96 22 -2 13 6 36 18 53 32 45 97 57 152 28z"/>
<path d="M2085 741 c-2 -4 38 -104 88 -224 65 -152 97 -217 108 -217 10 0 28
30 52 88 19 48 60 147 90 220 30 72 52 134 49 135 -4 2 -20 3 -37 3 -28 -1
-31 -6 -72 -111 -24 -60 -51 -135 -60 -165 -9 -30 -18 -48 -21 -40 -2 8 -31
83 -64 165 l-59 150 -35 1 c-19 0 -37 -2 -39 -5z"/>
</g>
</svg>
